<svg aria-hidden="true" xmlns="http://www.w3.org/2000/svg" xmlns:xlink="http://www.w3.org/1999/xlink"><symbol viewBox="0 0 100 100" fill="none" id="facebook" xmlns="http://www.w3.org/2000/svg">
<path d="M100 50.1792C100 75.9857 80.7143 97.1326 56.0714 100V61.2903H67.8571L69.6429 47.6703H56.4286V39.4265C56.4286 35.4839 57.5 32.9749 63.2143 32.9749H70.3571V20.4301C66.7857 20.0717 63.5714 20.0717 60 20.0717C49.6429 20.0717 42.5 26.5233 42.5 37.9928V48.0287H30.7143V61.6488H42.5V100C18.2143 96.0574 0 75.2688 0 50.1792C0 22.5806 22.5 0 50 0C77.5 0 100 22.5806 100 50.1792Z" fill="currentColor"/>
</symbol><symbol viewBox="0 0 100 100" fill="none" id="instagram" xmlns="http://www.w3.org/2000/svg">
<g clip-path="url(#bclip0_1_13)">
<path d="M72.9308 0H27.069C12.1429 0 0 12.1429 0 27.069V72.9315C0 87.8569 12.1429 99.9998 27.069 99.9998H72.9315C87.8569 99.9998 99.9998 87.8569 99.9998 72.9315V27.069C99.9998 12.1429 87.8569 0 72.9308 0ZM49.9999 77.3428C34.9227 77.3428 22.657 65.0771 22.657 49.9999C22.657 34.9227 34.9227 22.657 49.9999 22.657C65.0771 22.657 77.3428 34.9227 77.3428 49.9999C77.3428 65.0771 65.0771 77.3428 49.9999 77.3428ZM77.9967 29.1053C73.5411 29.1053 69.9172 25.4814 69.9172 21.0258C69.9172 16.5702 73.5411 12.9455 77.9967 12.9455C82.4522 12.9455 86.077 16.5702 86.077 21.0258C86.077 25.4814 82.4522 29.1053 77.9967 29.1053Z" fill="currentColor"/>
<path d="M49.9999 28.5194C38.156 28.5194 28.5194 38.1553 28.5194 49.9999C28.5194 61.8437 38.156 71.4804 49.9999 71.4804C61.8445 71.4804 71.4804 61.8437 71.4804 49.9999C71.4804 38.1553 61.8445 28.5194 49.9999 28.5194Z" fill="currentColor"/>
<path d="M77.9967 18.8087C76.7744 18.8087 75.7796 19.8036 75.7796 21.0258C75.7796 22.248 76.7744 23.2429 77.9967 23.2429C79.2197 23.2429 80.2145 22.2488 80.2145 21.0258C80.2145 19.8028 79.2197 18.8087 77.9967 18.8087Z" fill="currentColor"/>
</g>
<defs>
<clipPath id="bclip0_1_13">
<rect width="100" height="100" fill="currentColor"/>
</clipPath>
</defs>
</symbol><symbol viewBox="0 0 100 100" fill="none" id="left-arrow" xmlns="http://www.w3.org/2000/svg">
<path d="M100 44.5071L46.3967 44.5071V0L0 50L46.3967 100V55.4929H100V44.5071Z" fill="currentColor"/>
</symbol><symbol viewBox="0 0 100 100" fill="none" id="quotes" xmlns="http://www.w3.org/2000/svg">
<path fill-rule="evenodd" clip-rule="evenodd" d="M25.528 79.9481C35.1554 79.9482 42.9899 72.1138 42.9899 62.4845C42.9897 52.8572 35.1555 45.0227 25.528 45.0227C22.5271 45.0228 19.5689 45.797 16.9694 47.2619C16.8123 47.3511 16.6375 47.3938 16.4643 47.3939C16.268 47.3939 16.0719 47.3386 15.9024 47.2261C15.5811 47.0175 15.4028 46.6463 15.4421 46.2645C16.004 40.7032 17.4475 35.5201 19.733 30.858C21.7526 26.7401 24.3969 23.1254 27.6316 20.0529C11.8415 28.494 5.41492 46.5035 7.58275 61.0537C8.94408 70.187 14.3733 79.9481 25.528 79.9481Z" fill="currentColor"/>
<path fill-rule="evenodd" clip-rule="evenodd" d="M75.3653 79.9475C84.9945 79.9476 92.8271 72.1132 92.8271 62.4839C92.827 52.8565 84.9946 45.0221 75.3653 45.0221C72.366 45.0222 69.4061 45.7964 66.8065 47.2613C66.6494 47.3505 66.4765 47.3932 66.3034 47.3933C66.1071 47.3933 65.9109 47.338 65.7396 47.2255C65.4184 47.0169 65.2418 46.6457 65.2793 46.2639C65.8413 40.7026 67.2865 35.5195 69.572 30.8574C71.5915 26.7395 74.2341 23.1247 77.4688 20.0523C61.6822 28.4933 55.254 46.5029 57.4218 61.053C58.783 70.1864 64.2106 79.9475 75.3653 79.9475Z" fill="currentColor"/>
</symbol><symbol viewBox="0 0 100 100" fill="none" id="right-arrow" xmlns="http://www.w3.org/2000/svg">
<path d="M-2.61134e-07 55.4929L53.6033 55.4929V100L100 50L53.6033 2.11866e-06V44.5071H-2.61134e-07V55.4929Z" fill="currentColor"/>
</symbol><symbol viewBox="0 0 100 100" fill="none" id="twitter" xmlns="http://www.w3.org/2000/svg">
<path d="M97.7336 11.5407C96.1627 12.3917 94.5475 13.11 92.8972 13.6931C94.8511 10.9942 96.3407 7.81857 97.2501 4.34347C97.4539 3.56453 97.2426 2.71191 96.7185 2.20247C96.1949 1.69263 95.4675 1.63156 94.891 2.04881C91.3862 4.58776 87.6049 6.41238 83.6401 7.47933C79.6463 2.7127 74.2218 0 68.614 0C56.777 0 47.1467 11.7621 47.1467 26.2196C47.1467 27.3583 47.2057 28.4907 47.3225 29.6073C32.6338 28.032 18.9781 19.2139 9.60068 5.16418C9.26649 4.6634 8.75165 4.39351 8.22456 4.44513C7.69714 4.49556 7.22327 4.85883 6.95682 5.41713C5.05489 9.40324 4.04941 13.9622 4.04941 18.6008C4.04941 24.9186 5.89618 30.913 9.15843 35.5969C8.16649 35.1773 7.20392 34.6528 6.28521 34.0299C5.79199 33.6946 5.19005 33.6998 4.70005 34.0429C4.20973 34.3861 3.90231 35.0173 3.88941 35.7072C3.88715 35.8234 3.88715 35.9397 3.88715 36.0575C3.88715 45.4879 8.04262 53.9782 14.3958 58.6058C13.85 58.5392 13.3045 58.4427 12.7626 58.3162C12.2039 58.1858 11.6294 58.4249 11.2526 58.9454C10.8752 59.4655 10.7504 60.1905 10.9242 60.8524C13.2758 69.8199 19.3303 76.4158 26.6497 78.4268C20.579 83.0709 13.6368 85.5035 6.34908 85.5035C4.82844 85.5035 3.29909 85.3943 1.80232 85.178C1.05877 85.0701 0.347809 85.6063 0.0945842 86.47C-0.158641 87.334 0.109745 88.2974 0.742324 88.7926C10.1046 96.1246 20.93 100 32.0477 100C53.9038 100 67.5763 87.4116 75.1972 76.8512C84.7004 63.6833 90.1507 46.2538 90.1507 29.0324C90.1507 28.313 90.1417 27.5864 90.1236 26.8622C93.873 23.412 97.101 19.2363 99.7278 14.437C100.127 13.7081 100.084 12.7448 99.6214 12.0738C99.1597 11.4024 98.3904 11.1853 97.7336 11.5407Z" fill="currentColor"/>
</symbol><symbol viewBox="0 0 130 100" fill="none" id="youtube" xmlns="http://www.w3.org/2000/svg">
<path d="M127.322 15.6476C125.823 9.52892 121.432 4.70562 115.864 3.05804C105.691 0 64.9985 0 64.9985 0C64.9985 0 24.3076 0 14.1347 2.9421C8.6733 4.58793 4.17518 9.52979 2.67713 15.6476C0 26.8232 0 50 0 50C0 50 0 73.2936 2.67713 84.3524C4.17677 90.4702 8.56618 95.2935 14.1355 96.9411C24.4147 100 65.0001 100 65.0001 100C65.0001 100 105.691 100 115.864 97.0579C121.433 95.4112 125.823 90.5879 127.323 84.4701C129.999 73.2936 129.999 50.1177 129.999 50.1177C129.999 50.1177 130.107 26.8232 127.322 15.6476ZM52.0429 71.4115V28.5885L85.8808 50L52.0429 71.4115Z" fill="currentColor"/>
</symbol></svg>