<svg width="512" height="512" viewBox="0 0 512 512" fill="none" xmlns="http://www.w3.org/2000/svg">
<g clip-path="url(#clip0_17_125)">
<path d="M336 336C336 327.513 332.629 319.374 326.627 313.373C320.626 307.371 312.487 304 304 304H201.04L208 248.96C208.039 248.641 208.039 248.319 208 248C208 203.68 176.64 192 160 192C158.204 191.934 156.439 192.474 154.988 193.533C153.536 194.592 152.484 196.11 152 197.84L120 308.96C114.625 319.559 106.287 328.369 96 334.32V328C96 325.878 95.1571 323.843 93.6569 322.343C92.1566 320.843 90.1217 320 88 320H8C5.87827 320 3.84344 320.843 2.34315 322.343C0.842855 323.843 0 325.878 0 328L0 504C0 506.122 0.842855 508.157 2.34315 509.657C3.84344 511.157 5.87827 512 8 512H88C90.1217 512 92.1566 511.157 93.6569 509.657C95.1571 508.157 96 506.122 96 504V498.64L141.84 512C142.555 512.122 143.285 512.122 144 512H280C286.061 511.915 291.972 510.11 297.047 506.795C302.122 503.481 306.151 498.793 308.665 493.278C311.18 487.763 312.076 481.647 311.25 475.643C310.424 469.638 307.91 463.991 304 459.36C307.963 456.975 311.361 453.759 313.962 449.934C316.562 446.109 318.302 441.766 319.063 437.204C319.823 432.642 319.586 427.969 318.366 423.507C317.147 419.046 314.975 414.901 312 411.36C315.963 408.975 319.361 405.759 321.962 401.934C324.562 398.109 326.302 393.766 327.063 389.204C327.823 384.642 327.586 379.969 326.366 375.507C325.147 371.046 322.975 366.901 320 363.36C324.813 360.582 328.82 356.597 331.625 351.8C334.431 347.003 335.939 341.557 336 336ZM80 496H16V336H80V496ZM280 496H145.12L96 482V351.04C120 345.52 134.48 316.96 135.12 315.6C135.341 315.134 135.528 314.653 135.68 314.16L165.84 208.72C175.2 210.8 191.84 218.56 192 247.52L184 311.04C183.863 312.157 183.964 313.29 184.294 314.365C184.625 315.44 185.179 316.433 185.92 317.28C186.679 318.144 187.614 318.833 188.663 319.303C189.713 319.772 190.851 320.01 192 320H304C308.243 320 312.313 321.686 315.314 324.686C318.314 327.687 320 331.757 320 336C320 340.243 318.314 344.313 315.314 347.314C312.313 350.314 308.243 352 304 352H264C261.878 352 259.843 352.843 258.343 354.343C256.843 355.843 256 357.878 256 360C256 362.122 256.843 364.157 258.343 365.657C259.843 367.157 261.878 368 264 368H296C300.243 368 304.313 369.686 307.314 372.686C310.314 375.687 312 379.757 312 384C312 388.243 310.314 392.313 307.314 395.314C304.313 398.314 300.243 400 296 400H256C253.878 400 251.843 400.843 250.343 402.343C248.843 403.843 248 405.878 248 408C248 410.122 248.843 412.157 250.343 413.657C251.843 415.157 253.878 416 256 416H288C292.243 416 296.313 417.686 299.314 420.686C302.314 423.687 304 427.757 304 432C304 436.243 302.314 440.313 299.314 443.314C296.313 446.314 292.243 448 288 448H248C245.878 448 243.843 448.843 242.343 450.343C240.843 451.843 240 453.878 240 456C240 458.122 240.843 460.157 242.343 461.657C243.843 463.157 245.878 464 248 464H280C284.243 464 288.313 465.686 291.314 468.686C294.314 471.687 296 475.757 296 480C296 484.243 294.314 488.313 291.314 491.314C288.313 494.314 284.243 496 280 496Z" fill="black"/>
<path d="M104 120H112V128C112 130.122 112.843 132.157 114.343 133.657C115.843 135.157 117.878 136 120 136C122.122 136 124.157 135.157 125.657 133.657C127.157 132.157 128 130.122 128 128V120H136C138.122 120 140.157 119.157 141.657 117.657C143.157 116.157 144 114.122 144 112C144 109.878 143.157 107.843 141.657 106.343C140.157 104.843 138.122 104 136 104H128V96C128 93.8783 127.157 91.8434 125.657 90.3431C124.157 88.8429 122.122 88 120 88C117.878 88 115.843 88.8429 114.343 90.3431C112.843 91.8434 112 93.8783 112 96V104H104C101.878 104 99.8434 104.843 98.3431 106.343C96.8429 107.843 96 109.878 96 112C96 114.122 96.8429 116.157 98.3431 117.657C99.8434 119.157 101.878 120 104 120Z" fill="black"/>
<path d="M432 400H424V392C424 389.878 423.157 387.843 421.657 386.343C420.157 384.843 418.122 384 416 384C413.878 384 411.843 384.843 410.343 386.343C408.843 387.843 408 389.878 408 392V400H400C397.878 400 395.843 400.843 394.343 402.343C392.843 403.843 392 405.878 392 408C392 410.122 392.843 412.157 394.343 413.657C395.843 415.157 397.878 416 400 416H408V424C408 426.122 408.843 428.157 410.343 429.657C411.843 431.157 413.878 432 416 432C418.122 432 420.157 431.157 421.657 429.657C423.157 428.157 424 426.122 424 424V416H432C434.122 416 436.157 415.157 437.657 413.657C439.157 412.157 440 410.122 440 408C440 405.878 439.157 403.843 437.657 402.343C436.157 400.843 434.122 400 432 400Z" fill="black"/>
<path d="M336 3.5651e-06C289.322 3.5651e-06 244.556 18.5428 211.549 51.5492C178.543 84.5556 160 129.322 160 176C160 178.122 160.843 180.157 162.343 181.657C163.843 183.157 165.878 184 168 184C170.122 184 172.157 183.157 173.657 181.657C175.157 180.157 176 178.122 176 176C176.009 145.662 184.644 115.952 200.897 90.3344C217.15 64.7171 240.351 44.2485 267.794 31.3159C295.238 18.3832 325.793 13.5194 355.895 17.2918C385.998 21.0642 414.408 33.3173 437.811 52.6221C461.215 71.9268 478.648 97.4875 488.076 126.323C497.505 155.159 498.542 186.081 491.065 215.483C483.587 244.886 467.905 271.556 445.847 292.384C423.788 313.213 396.263 327.341 366.48 333.12C364.358 333.322 362.404 334.358 361.046 336.001C359.688 337.643 359.038 339.758 359.24 341.88C359.442 344.002 360.478 345.957 362.121 347.314C363.763 348.672 365.878 349.322 368 349.12H369.52C412.889 341.19 451.702 317.273 478.282 282.099C504.862 246.924 517.273 203.055 513.059 159.169C508.846 115.283 488.315 74.577 455.527 45.1027C422.74 15.6284 380.085 -0.467155 336 3.5651e-06Z" fill="black"/>
<path d="M408 208C408 191.026 401.257 174.747 389.255 162.745C377.252 150.743 360.974 144 344 144H328C323.757 144 319.687 142.314 316.686 139.314C313.686 136.313 312 132.243 312 128C312 123.757 313.686 119.687 316.686 116.686C319.687 113.686 323.757 112 328 112H384C390.365 112 396.47 109.471 400.971 104.971C405.471 100.47 408 94.3652 408 88C408 81.6348 405.471 75.5303 400.971 71.0294C396.47 66.5286 390.365 64 384 64H360V40C360 37.8783 359.157 35.8434 357.657 34.3431C356.157 32.8429 354.122 32 352 32H320C317.878 32 315.843 32.8429 314.343 34.3431C312.843 35.8434 312 37.8783 312 40V66.08C296.96 70.0107 283.865 79.281 275.159 92.1601C266.454 105.039 262.734 120.646 264.693 136.068C266.653 151.489 274.158 165.67 285.808 175.962C297.457 186.255 312.455 191.956 328 192H344C348.243 192 352.313 193.686 355.314 196.686C358.314 199.687 360 203.757 360 208C360 212.243 358.314 216.313 355.314 219.314C352.313 222.314 348.243 224 344 224H288C281.635 224 275.53 226.529 271.029 231.029C266.529 235.53 264 241.635 264 248C264 254.365 266.529 260.47 271.029 264.971C275.53 269.471 281.635 272 288 272H312V296C312 298.122 312.843 300.157 314.343 301.657C315.843 303.157 317.878 304 320 304H352C354.122 304 356.157 303.157 357.657 301.657C359.157 300.157 360 298.122 360 296V269.92C373.73 266.375 385.894 258.37 394.582 247.163C403.27 235.956 407.989 222.18 408 208ZM350.88 255.44C348.958 255.712 347.2 256.673 345.934 258.145C344.668 259.617 343.981 261.499 344 263.44V288H328V264C328 261.878 327.157 259.843 325.657 258.343C324.157 256.843 322.122 256 320 256H288C285.878 256 283.843 255.157 282.343 253.657C280.843 252.157 280 250.122 280 248C280 245.878 280.843 243.843 282.343 242.343C283.843 240.843 285.878 240 288 240H344C352.487 240 360.626 236.629 366.627 230.627C372.629 224.626 376 216.487 376 208C376 199.513 372.629 191.374 366.627 185.373C360.626 179.371 352.487 176 344 176H328C315.94 175.895 304.361 171.253 295.568 162.999C286.774 154.745 281.41 143.482 280.543 131.453C279.676 119.424 283.369 107.509 290.888 98.0783C298.406 88.6481 309.2 82.3939 321.12 80.56C323.042 80.2883 324.8 79.3269 326.066 77.855C327.332 76.3832 328.019 74.5012 328 72.56V48H344V72C344 74.1217 344.843 76.1566 346.343 77.6569C347.843 79.1571 349.878 80 352 80H384C386.122 80 388.157 80.8429 389.657 82.3431C391.157 83.8434 392 85.8783 392 88C392 90.1217 391.157 92.1566 389.657 93.6569C388.157 95.1571 386.122 96 384 96H328C319.513 96 311.374 99.3714 305.373 105.373C299.371 111.374 296 119.513 296 128C296 136.487 299.371 144.626 305.373 150.627C311.374 156.629 319.513 160 328 160H344C356.06 160.105 367.639 164.747 376.432 173.001C385.226 181.255 390.59 192.518 391.457 204.547C392.324 216.576 388.631 228.491 381.112 237.922C373.594 247.352 362.8 253.606 350.88 255.44Z" fill="black"/>
</g>
<defs>
<clipPath id="clip0_17_125">
<rect width="512" height="512" fill="white"/>
</clipPath>
</defs>
</svg>
