<svg width="512" height="512" viewBox="0 0 512 512" fill="none" xmlns="http://www.w3.org/2000/svg">
<g clip-path="url(#clip0_17_152)">
<path d="M465.78 107.236C414.553 37.357 333.527 6.55535 272.176 38.2965C270.227 39.3069 268.387 40.4718 266.568 41.6242L265.141 42.5303C234.565 62.4092 213.88 94.3633 208.259 130.409C192.185 127.674 175.735 128.071 159.811 131.574C113.429 141.382 67.1178 174.894 35.7957 225.415C32.4615 230.789 29.3026 236.359 26.3189 242.121C4.72391 282.405 -3.90156 328.376 1.62759 373.75C1.71522 374.351 1.75695 374.973 1.84875 375.574C1.98646 376.426 2.01984 377.395 2.17424 378.284C2.77515 381.875 3.64729 385.286 4.4485 388.731C4.61124 389.441 4.7406 390.171 4.91169 390.869C6.04673 395.503 7.40712 399.979 8.90103 404.338C8.98866 404.593 9.05543 404.852 9.14723 405.098C18.0481 432.597 36.4216 456.033 60.9919 471.236L62.7612 472.33C64.1592 473.228 65.5613 474.109 67.0343 474.894C83.2504 483.223 101.236 487.507 119.463 487.386C179.287 487.386 244.101 444.238 280.61 373.658C285.137 364.823 289.135 355.724 292.574 346.413C320.407 370.125 355.452 383.691 391.986 384.894C410.409 384.99 428.582 380.643 444.97 372.221C446.468 371.441 447.866 370.56 449.243 369.653L450.954 368.585C475.557 353.382 493.956 329.921 502.861 302.393C502.932 302.18 502.998 301.946 503.078 301.733C504.58 297.336 505.94 292.831 507.092 288.163C507.255 287.503 507.376 286.81 507.53 286.146C508.34 282.664 509.237 279.228 509.817 275.599C509.971 274.701 510.017 273.77 510.151 272.864C510.239 272.317 510.272 271.745 510.347 271.152C515.918 225.787 507.33 179.804 485.76 139.507C479.943 128.251 473.266 117.461 465.78 107.236ZM477.531 162.084C478.274 163.795 478.891 165.503 479.584 167.215C480.89 170.438 482.146 173.679 483.336 176.931C484.062 179.006 484.683 181.077 485.351 183.152C486.282 186.079 487.196 189.002 488.001 191.946C488.589 194.109 489.119 196.28 489.641 198.443C490.334 201.353 490.985 204.259 491.556 207.157C491.965 209.244 492.341 211.324 492.683 213.39C493.205 216.555 493.634 219.72 493.993 222.864C494.198 224.576 494.419 226.347 494.573 228.084C494.92 232.125 495.141 236.155 495.241 240.175C495.241 240.969 495.324 241.775 495.333 242.56C495.458 252.601 494.707 262.635 493.084 272.547C493.017 272.931 492.933 273.311 492.862 273.695C492.153 277.783 491.281 281.758 490.3 285.666C489.975 286.914 489.607 288.146 489.249 289.386C488.443 292.2 487.538 294.935 486.599 297.62C485.939 299.441 485.268 301.253 484.529 303.023C483.795 304.793 482.985 306.626 482.163 308.384C481.095 310.685 480.018 312.969 478.812 315.169C478.336 316.021 477.815 316.877 477.31 317.733C471.981 327.061 465.242 335.507 457.338 342.777C457.388 341.691 457.397 340.572 457.405 339.461C457.405 339.223 457.405 338.99 457.405 338.752C457.405 336.94 457.313 335.073 457.15 333.178C457.15 332.706 457.054 332.217 457.004 331.741C456.833 330.167 456.6 328.564 456.303 326.935C456.216 326.464 456.149 326 456.045 325.532C455.627 323.495 455.097 321.42 454.43 319.282C454.304 318.877 454.142 318.468 454.004 318.059C453.407 316.263 452.698 314.422 451.892 312.543C451.63 311.925 451.362 311.319 451.083 310.693C450.023 308.376 448.85 306.025 447.44 303.578C438.418 287.612 423.717 275.628 406.265 270.017C377.501 261.056 360.434 231.495 367.048 202.088C374.668 164.977 353.332 128.029 317.394 116.104C303.457 111.929 291.676 102.522 284.516 89.8539C283.464 88.0209 282.559 86.2714 281.757 84.5595C281.499 84.0126 281.311 83.499 281.081 82.9687C280.585 81.8247 280.096 80.6764 279.704 79.5491C279.483 78.9437 279.312 78.3424 279.124 77.7453C278.815 76.7516 278.515 75.7704 278.269 74.81C278.114 74.1963 277.985 73.5867 277.868 72.9729C277.68 72.0668 277.509 71.1524 277.38 70.2631C277.292 69.6535 277.217 69.048 277.159 68.4426C277.063 67.5867 277.004 66.6806 276.963 65.7996C276.963 65.2151 276.9 64.6347 276.892 64.0877C276.892 63.19 276.892 62.284 276.892 61.3863C276.892 60.8393 276.892 60.2923 276.942 59.7453C276.996 58.7766 277.071 57.8121 277.159 56.8351C277.159 56.3591 277.234 55.8789 277.284 55.3904V55.1441C278.202 54.6305 278.995 54.0084 279.967 53.5282C341.723 21.5908 427.201 63.7036 470.55 147.411C473.112 152.225 475.394 157.14 477.531 162.084ZM321.434 346.063C321.263 345.958 321.083 345.875 320.912 345.762C320.257 345.353 319.606 344.906 318.947 344.455C311.74 339.8 304.859 334.656 298.353 329.065C307.312 299.411 309.516 268.121 304.796 237.507C297.873 196.213 277.447 163.887 247.059 145.203L245.511 144.221C243.692 143.065 241.851 141.904 239.894 140.894C235.05 138.422 230.029 136.313 224.872 134.585C225.231 132.693 225.606 130.814 226.028 128.973C226.186 128.255 226.324 127.512 226.495 126.81C227.254 123.708 228.127 120.681 229.061 117.712C229.212 117.223 229.366 116.739 229.529 116.251C235.321 97.7328 245.795 81.0272 259.937 67.7495C259.937 68.2339 260.066 68.7391 260.108 69.2276C260.229 70.5512 260.392 71.8956 260.596 73.2652C260.738 74.1712 260.893 75.094 261.08 76.0251C261.356 77.4113 261.715 78.8393 262.099 80.3007C262.357 81.2318 262.595 82.167 262.896 83.1149C263.405 84.7057 264.039 86.3549 264.707 88.0042C265.049 88.8602 265.328 89.7161 265.712 90.5721C266.906 93.2568 268.237 95.8748 269.706 98.4217C278.724 114.38 293.417 126.359 310.864 131.967C339.619 140.927 356.683 170.476 350.081 199.879C342.465 236.994 363.797 273.937 399.735 285.871C428.516 294.86 445.591 324.443 438.99 353.879L438.681 356.205C438.159 356.484 437.679 356.856 437.141 357.127C402.956 374.777 360.609 370.263 321.434 346.063ZM282.663 321.983C282.029 324.284 281.302 326.576 280.585 328.823C279.779 331.39 278.995 333.954 278.098 336.518C277.071 339.403 275.919 342.267 274.772 345.132C273.979 347.132 273.245 349.148 272.381 351.115C270.253 356.025 267.97 360.906 265.474 365.729C253.895 388.238 238.526 408.58 220.044 425.871C218.199 427.583 216.401 429.411 214.514 431.002L214.318 431.165C178.782 461.829 136.48 476.1 99.0617 468.276C90.6657 466.539 82.541 463.662 74.9212 459.724C74.3829 459.449 73.9113 459.081 73.3814 458.802L73.0726 456.476C72.3214 451.624 71.8791 446.727 71.7581 441.816C71.7414 432.263 74.4037 422.898 79.4488 414.789C86.6054 402.1 98.3898 392.672 112.336 388.476C148.277 376.551 169.614 339.599 161.99 302.484C155.388 273.081 172.451 243.532 201.207 234.572C218.654 228.96 233.347 216.981 242.365 201.019C243.834 198.472 245.165 195.854 246.358 193.169C246.742 192.313 247.022 191.457 247.364 190.601C248.032 188.952 248.674 187.311 249.179 185.72C249.475 184.772 249.717 183.846 249.972 182.914C250.356 181.47 250.715 180.033 250.999 178.639C251.178 177.724 251.332 176.818 251.466 175.921C251.683 174.526 251.846 173.157 251.962 171.816C252.004 171.336 252.109 170.839 252.134 170.372C263.096 180.518 271.826 192.835 277.772 206.543C278.081 207.244 278.406 207.946 278.703 208.664C279.9 211.466 280.977 214.351 281.987 217.274C282.429 218.589 282.859 219.921 283.268 221.265C284.073 223.833 284.833 226.493 285.5 229.169C285.959 231.056 286.352 233.006 286.748 234.948C287.232 237.336 287.746 239.704 288.129 242.134C288.534 244.697 288.789 247.357 289.072 249.975C289.544 254.363 289.844 258.814 289.978 263.332C290.036 265.332 290.166 267.324 290.157 269.315C290.157 272.309 289.97 275.353 289.807 278.388C289.711 280.159 289.653 281.921 289.515 283.691C289.269 286.752 288.893 289.829 288.497 292.919C288.267 294.731 288.029 296.543 287.746 298.355C287.278 301.374 286.719 304.401 286.106 307.436C285.705 309.411 285.25 311.395 284.799 313.424C284.157 316.238 283.456 319.111 282.663 321.983ZM33.2752 417.77C32.0776 415.583 31.0093 413.299 29.941 411.019C29.0856 409.248 28.301 407.47 27.5583 405.628C26.8155 403.791 26.1562 402.063 25.5052 400.242C24.5496 397.549 23.6524 394.806 22.847 391.992C22.4881 390.76 22.1209 389.537 21.7954 388.28C20.7981 384.397 19.9259 380.413 19.2332 376.309C19.1665 375.933 19.0788 375.566 19.0121 375.178C17.3846 365.269 16.6251 355.24 16.7462 345.198C16.7462 344.413 16.8254 343.599 16.8421 342.814C16.9298 338.823 17.1551 334.793 17.5056 330.722C17.66 329.01 17.8812 327.24 18.0899 325.507C18.4487 322.351 18.8744 319.194 19.396 316.029C19.7382 313.962 20.1137 311.883 20.5227 309.795C21.0985 306.889 21.7454 303.992 22.4381 301.09C22.9597 298.919 23.4896 296.747 24.078 294.576C24.8834 291.641 25.7889 288.727 26.7278 285.804C27.3955 283.724 28.0173 281.645 28.7434 279.57C29.8993 276.309 31.1887 273.077 32.499 269.854C33.1876 268.146 33.8052 266.434 34.5479 264.722C36.6845 259.783 38.9838 254.864 41.4959 250.017C44.008 245.169 46.5827 240.706 49.2993 236.23C50.1548 234.856 51.0102 233.528 51.8615 232.188C53.852 229.044 55.9009 225.983 58.0166 222.994C58.9805 221.633 59.9403 220.267 60.9293 218.939C63.3246 215.699 65.7949 212.572 68.3238 209.537C68.9998 208.722 69.6382 207.825 70.3226 207.065C73.5399 203.29 76.8532 199.679 80.2542 196.23C81.1097 195.374 81.9609 194.518 82.8665 193.662C85.4829 191.086 88.1411 188.605 90.841 186.217C91.9969 185.198 93.1653 184.196 94.3379 183.215C96.9961 180.973 99.6876 178.843 102.413 176.793C103.439 176.013 104.457 175.211 105.492 174.468C109.235 171.775 113.012 169.215 116.847 166.873C117.293 166.61 117.702 166.384 118.174 166.129C121.591 164.084 125.009 162.205 128.498 160.451C129.704 159.846 130.905 159.29 132.12 158.739C134.97 157.403 137.816 156.159 140.666 155.015C141.897 154.526 143.12 154.021 144.351 153.566C147.802 152.284 151.269 151.144 154.75 150.146C155.271 150 155.793 149.804 156.314 149.67C160.295 148.601 164.289 147.762 168.278 147.102C169.372 146.914 170.465 146.81 171.562 146.66C174.492 146.246 177.405 145.942 180.321 145.762C181.602 145.683 182.884 145.624 184.173 145.582C186.739 145.512 189.243 145.582 191.755 145.708C193.466 145.779 195.173 145.829 196.884 145.992C199.346 146.221 201.779 146.622 204.207 147.036C205.806 147.299 207.412 147.512 208.994 147.891C211.618 148.472 214.181 149.265 216.751 150.063C218.087 150.48 219.439 150.789 220.753 151.265C224.517 152.618 228.189 154.209 231.753 156.029L232.066 156.167C233.001 156.647 233.835 157.278 234.753 157.783V158.029C234.803 158.518 234.837 158.998 234.878 159.478C234.966 160.451 235.041 161.415 235.091 162.384C235.091 162.931 235.091 163.478 235.146 164.025V166.727C235.146 167.311 235.146 167.891 235.075 168.438C235.075 169.294 234.974 170.2 234.878 171.081C234.82 171.687 234.741 172.296 234.657 172.902C234.528 173.758 234.357 174.706 234.169 175.612C234.052 176.23 233.923 176.835 233.768 177.449C233.531 178.409 233.23 179.39 232.913 180.384C232.725 180.981 232.554 181.582 232.333 182.188C231.941 183.29 231.478 184.438 230.956 185.608C230.726 186.138 230.539 186.651 230.28 187.198C229.479 188.91 228.573 190.664 227.522 192.493C220.369 205.177 208.585 214.601 194.643 218.785C158.706 230.714 137.369 267.658 144.989 304.768C151.607 334.18 134.536 363.745 105.763 372.697C88.3205 378.313 73.6276 390.288 64.6057 406.246C63.1952 408.689 62.0393 411.044 60.9627 413.361C60.6831 413.983 60.416 414.593 60.1114 415.207C59.306 417.09 58.5966 418.935 57.9999 420.739C57.8622 421.132 57.6994 421.545 57.5784 421.937C56.9316 423.996 56.3891 426.084 55.9551 428.196C55.855 428.668 55.7841 429.127 55.7006 429.599C55.4001 431.236 55.1665 432.835 54.9995 434.405C54.9495 434.885 54.8869 435.37 54.8535 435.841C54.6907 437.75 54.5989 439.612 54.5989 441.424V442.092C54.5989 443.219 54.5989 444.342 54.6657 445.445C46.7663 438.18 40.0312 429.741 34.7023 420.422C34.2934 419.507 33.7634 418.668 33.2752 417.77Z" fill="black"/>
</g>
<defs>
<clipPath id="clip0_17_152">
<rect width="512" height="512" fill="white"/>
</clipPath>
</defs>
</svg>
