<svg width="512" height="512" viewBox="0 0 512 512" fill="none" xmlns="http://www.w3.org/2000/svg">
<g clip-path="url(#clip0_17_48)">
<path d="M456.828 441.379H349.196C376.616 430.427 397.584 414.847 413.57 395.979C478.801 386.076 508.028 332.133 508.028 282.483C508.028 247.237 488.401 217.809 463 212.663C463.002 212.396 463.005 212.129 463.007 211.863C463.007 207.449 461.241 203.035 457.71 199.504C454.179 195.973 449.765 194.207 445.351 194.207H39.283C34.869 194.207 30.455 195.973 26.924 199.504C23.393 203.035 21.627 207.449 21.627 211.863C22.31 306.803 38.848 402.799 135.438 441.38H26.924C14.565 441.38 3.972 451.09 3.972 464.332C3.972 474.925 11.034 482.87 23.393 485.518L135.503 493.463C138.151 493.463 140.8 495.229 141.682 497.877C146.096 506.705 154.923 512.001 164.634 512.001H311.172C320.882 512.001 329.71 506.704 333.241 497.877C334.124 495.229 336.772 493.463 339.42 493.463L459.475 485.518H460.358C472.717 482.87 479.779 474.925 479.779 464.332C479.779 451.972 470.069 441.379 456.828 441.379ZM463.007 231.283C478.014 236.58 489.49 257.766 489.49 282.483C489.49 316.883 473.623 358.333 429.565 373.37C430.303 372.117 431.025 370.854 431.732 369.581C456.249 327.054 461.293 275.842 463.007 231.283ZM39.283 211.862H445.352C444.469 331.034 418.869 441.379 242.318 441.379C65.767 441.379 40.166 331.034 39.283 211.862ZM458.593 467.862L340.303 475.807C331.475 476.69 323.531 481.986 319.117 489.931C317.351 492.579 314.703 494.345 312.055 494.345H164.635C161.987 494.345 159.338 492.579 157.573 489.931C153.159 481.986 145.214 476.69 136.387 475.807L26.042 467.862C21.628 466.979 21.628 465.214 21.628 464.331C21.628 461.683 24.276 459.034 26.925 459.034H457.71C460.358 459.034 463.007 461.682 463.007 464.331C463.007 465.214 463.007 466.979 458.593 467.862Z" fill="black"/>
<path d="M236.138 73.269C222.897 86.51 215.835 99.752 215.835 113.876C215.835 128 222.897 142.124 236.138 156.248C237.904 158.014 239.669 158.896 242.317 158.896C244.965 158.896 246.731 158.013 248.496 156.248C252.027 152.717 252.027 147.42 248.496 143.889C238.786 133.296 233.489 123.586 233.489 113.875C233.489 104.164 238.786 94.454 248.496 85.627C261.738 73.269 268.8 59.145 268.8 45.021C268.8 30.897 262.621 15.89 248.497 2.64898C244.966 -0.882018 239.669 -0.882018 236.138 2.64898C232.607 6.17998 232.607 11.477 236.138 15.008C245.848 25.601 251.145 35.311 251.145 45.022C251.145 54.733 245.848 64.441 236.138 73.269Z" fill="black"/>
<path d="M312.938 113.876C312.938 128 320 142.124 333.241 156.248C335.007 158.014 336.772 158.896 339.42 158.896C341.186 158.896 343.834 158.013 344.717 156.248C348.248 152.717 348.248 147.42 344.717 143.889C335.007 133.296 329.71 123.586 329.71 113.875C329.71 104.164 335.007 94.4539 344.717 85.6269C358.841 73.2679 365.903 59.1439 365.903 45.0199C365.903 30.0129 359.724 15.8889 345.6 2.64788C342.069 -0.883116 336.772 -0.883116 333.241 2.64788C329.71 6.17888 329.71 11.4759 333.241 15.0069C342.951 25.5999 348.248 35.3099 348.248 45.0209C348.248 54.7319 342.951 63.5589 333.241 73.2689C320 86.5099 312.938 99.7519 312.938 113.876Z" fill="black"/>
<path d="M127.559 113.876C127.559 128 134.621 142.124 147.862 156.248C149.628 158.014 151.393 158.896 154.041 158.896C155.807 158.896 158.455 158.013 159.338 156.248C162.869 152.717 162.869 147.42 159.338 143.889C149.628 133.296 144.331 123.586 144.331 113.875C144.331 104.164 149.628 94.4539 159.338 85.6269C173.462 73.2679 180.524 59.1439 180.524 45.0199C180.524 30.0129 174.345 15.8889 160.221 2.64788C156.69 -0.883116 151.393 -0.883116 147.862 2.64788C144.331 6.17888 144.331 11.4759 147.862 15.0069C157.572 25.5999 162.869 35.3099 162.869 45.0209C162.869 54.7319 157.572 63.5589 147.862 73.2689C134.621 86.5099 127.559 99.7519 127.559 113.876Z" fill="black"/>
<path d="M191.117 397.241C128.441 386.648 96.662 351.338 83.42 280.717C82.537 276.303 77.241 272.772 72.827 273.655C68.413 274.538 64.882 279.834 65.765 284.248C79.889 362.813 117.848 402.538 187.586 414.896C188.469 414.896 188.469 414.896 189.352 414.896C193.766 414.896 197.297 412.248 198.18 407.834C199.062 402.538 195.531 398.124 191.117 397.241Z" fill="black"/>
</g>
<defs>
<clipPath id="clip0_17_48">
<rect width="512" height="512" fill="white"/>
</clipPath>
</defs>
</svg>
