<svg width="100" height="100" viewBox="0 0 100 100" fill="none" xmlns="http://www.w3.org/2000/svg">
<g clip-path="url(#clip0_1_13)">
<path d="M72.9308 0H27.069C12.1429 0 0 12.1429 0 27.069V72.9315C0 87.8569 12.1429 99.9998 27.069 99.9998H72.9315C87.8569 99.9998 99.9998 87.8569 99.9998 72.9315V27.069C99.9998 12.1429 87.8569 0 72.9308 0ZM49.9999 77.3428C34.9227 77.3428 22.657 65.0771 22.657 49.9999C22.657 34.9227 34.9227 22.657 49.9999 22.657C65.0771 22.657 77.3428 34.9227 77.3428 49.9999C77.3428 65.0771 65.0771 77.3428 49.9999 77.3428ZM77.9967 29.1053C73.5411 29.1053 69.9172 25.4814 69.9172 21.0258C69.9172 16.5703 73.5411 12.9455 77.9967 12.9455C82.4522 12.9455 86.077 16.5703 86.077 21.0258C86.077 25.4814 82.4522 29.1053 77.9967 29.1053Z" fill="white"/>
<path d="M49.9999 28.5194C38.156 28.5194 28.5194 38.1553 28.5194 49.9999C28.5194 61.8437 38.156 71.4804 49.9999 71.4804C61.8445 71.4804 71.4804 61.8437 71.4804 49.9999C71.4804 38.1553 61.8445 28.5194 49.9999 28.5194Z" fill="white"/>
<path d="M77.9967 18.8087C76.7744 18.8087 75.7796 19.8036 75.7796 21.0258C75.7796 22.248 76.7744 23.2429 77.9967 23.2429C79.2197 23.2429 80.2145 22.2488 80.2145 21.0258C80.2145 19.8028 79.2197 18.8087 77.9967 18.8087Z" fill="white"/>
</g>
<defs>
<clipPath id="clip0_1_13">
<rect width="100" height="100" fill="white"/>
</clipPath>
</defs>
</svg>
