<svg width="100" height="100" viewBox="0 0 100 100" fill="none" xmlns="http://www.w3.org/2000/svg">
<path d="M97.7336 11.5407C96.1627 12.3917 94.5475 13.11 92.8972 13.6931C94.851 10.9942 96.3407 7.81857 97.2501 4.34347C97.4539 3.56453 97.2426 2.71191 96.7185 2.20247C96.1949 1.69263 95.4675 1.63156 94.891 2.04881C91.3862 4.58776 87.6049 6.41238 83.6401 7.47933C79.6463 2.7127 74.2218 0 68.614 0C56.777 0 47.1467 11.7621 47.1467 26.2196C47.1467 27.3583 47.2057 28.4907 47.3225 29.6073C32.6338 28.032 18.9781 19.2139 9.60068 5.16418C9.26649 4.6634 8.75165 4.39351 8.22456 4.44513C7.69714 4.49556 7.22327 4.85883 6.95682 5.41713C5.05489 9.40324 4.04941 13.9622 4.04941 18.6008C4.04941 24.9186 5.89618 30.913 9.15843 35.5969C8.16649 35.1773 7.20392 34.6528 6.28521 34.0299C5.79199 33.6946 5.19005 33.6998 4.70005 34.0429C4.20973 34.3861 3.90231 35.0173 3.88941 35.7072C3.88715 35.8234 3.88715 35.9397 3.88715 36.0575C3.88715 45.4879 8.04262 53.9782 14.3958 58.6058C13.85 58.5392 13.3045 58.4427 12.7626 58.3162C12.2039 58.1858 11.6294 58.4249 11.2526 58.9454C10.8752 59.4655 10.7504 60.1905 10.9242 60.8524C13.2758 69.8199 19.3303 76.4158 26.6497 78.4268C20.579 83.0709 13.6368 85.5035 6.34908 85.5035C4.82844 85.5035 3.29909 85.3943 1.80232 85.178C1.05877 85.0701 0.347809 85.6063 0.0945842 86.47C-0.158641 87.334 0.109745 88.2974 0.742324 88.7926C10.1046 96.1246 20.93 100 32.0477 100C53.9038 100 67.5763 87.4116 75.1972 76.8512C84.7004 63.6833 90.1507 46.2538 90.1507 29.0324C90.1507 28.313 90.1417 27.5864 90.1236 26.8622C93.873 23.412 97.101 19.2363 99.7278 14.437C100.127 13.7081 100.084 12.7448 99.6214 12.0738C99.1597 11.4024 98.3904 11.1853 97.7336 11.5407Z" fill="white"/>
</svg>
