<svg width="130" height="100" viewBox="0 0 130 100" fill="none" xmlns="http://www.w3.org/2000/svg">
<path d="M127.322 15.6476C125.823 9.52892 121.432 4.70562 115.864 3.05804C105.691 0 64.9985 0 64.9985 0C64.9985 0 24.3076 0 14.1347 2.9421C8.6733 4.58793 4.17518 9.52979 2.67713 15.6476C0 26.8232 0 50 0 50C0 50 0 73.2936 2.67713 84.3524C4.17677 90.4702 8.56618 95.2935 14.1355 96.9411C24.4147 100 65.0001 100 65.0001 100C65.0001 100 105.691 100 115.864 97.0579C121.433 95.4112 125.823 90.5879 127.323 84.4701C129.999 73.2936 129.999 50.1177 129.999 50.1177C129.999 50.1177 130.107 26.8232 127.322 15.6476ZM52.0429 71.4115V28.5885L85.8808 50L52.0429 71.4115Z" fill="#FCFCFC"/>
</svg>
