<svg width="100" height="100" viewBox="0 0 100 100" fill="none" xmlns="http://www.w3.org/2000/svg">
<path d="M83.4595 16.5406C82.8735 15.9548 82.0788 15.6257 81.2501 15.6257C80.4215 15.6257 79.6268 15.9548 79.0407 16.5406L69.122 26.4594C63.1614 23.5472 56.6332 21.9821 50.0001 21.875C24.6064 21.875 4.62824 47.0031 3.79074 48.0719C3.35941 48.622 3.125 49.3009 3.125 50C3.125 50.6991 3.35941 51.378 3.79074 51.9281C9.83556 59.2335 17.0386 65.497 25.1126 70.4688L16.5407 79.0406C16.2423 79.3289 16.0042 79.6737 15.8404 80.055C15.6766 80.4363 15.5904 80.8463 15.5868 81.2613C15.5832 81.6762 15.6623 82.0877 15.8194 82.4717C15.9765 82.8558 16.2086 83.2047 16.502 83.4981C16.7954 83.7915 17.1443 84.0236 17.5284 84.1807C17.9124 84.3378 18.3239 84.4169 18.7389 84.4133C19.1538 84.4097 19.5639 84.3235 19.9451 84.1597C20.3264 83.9959 20.6712 83.7579 20.9595 83.4594L83.4595 20.9594C84.0453 20.3734 84.3744 19.5786 84.3744 18.75C84.3744 17.9214 84.0453 17.1267 83.4595 16.5406ZM34.3751 50C34.3801 45.8575 36.0279 41.8861 38.9571 38.9569C41.8862 36.0278 45.8576 34.38 50.0001 34.375C53.0469 34.3966 56.0177 35.3281 58.5314 37.05L37.0501 58.5313C35.3282 56.0176 34.3967 53.0468 34.3751 50Z" fill="#D1814F"/>
<path d="M96.2095 48.0719C91.5341 42.4068 86.1625 37.3544 80.222 33.0344L65.4063 47.85C65.5301 48.5606 65.6032 49.279 65.6251 50C65.6201 54.1425 63.9723 58.1139 61.0432 61.0431C58.114 63.9722 54.1426 65.62 50.0001 65.625C49.2792 65.6031 48.5607 65.53 47.8501 65.4062L37.2251 76.0312C41.3507 77.3808 45.6595 78.087 50.0001 78.125C75.3938 78.125 95.372 52.9969 96.2095 51.9281C96.6408 51.378 96.8752 50.6991 96.8752 50C96.8752 49.3009 96.6408 48.622 96.2095 48.0719Z" fill="#D1814F"/>
</svg>
