<svg width="100" height="100" viewBox="0 0 100 100" fill="none" xmlns="http://www.w3.org/2000/svg">
<path d="M96.2095 48.0719C95.372 47.0031 75.3939 21.875 50.0001 21.875C24.6064 21.875 4.62824 47.0031 3.79074 48.0719C3.35941 48.622 3.125 49.3009 3.125 50C3.125 50.6991 3.35941 51.378 3.79074 51.9281C4.62824 52.9969 24.6064 78.125 50.0001 78.125C75.3939 78.125 95.372 52.9969 96.2095 51.9281C96.6408 51.378 96.8752 50.6991 96.8752 50C96.8752 49.3009 96.6408 48.622 96.2095 48.0719ZM50.0001 65.625C46.9098 65.625 43.8888 64.7086 41.3193 62.9917C38.7498 61.2748 36.7471 58.8345 35.5645 55.9794C34.3819 53.1243 34.0725 49.9827 34.6753 46.9517C35.2782 43.9208 36.7664 41.1367 38.9516 38.9515C41.1368 36.7663 43.9209 35.2781 46.9518 34.6752C49.9828 34.0723 53.1244 34.3818 55.9795 35.5644C58.8346 36.747 61.2749 38.7497 62.9918 41.3192C64.7087 43.8887 65.6251 46.9097 65.6251 50C65.6202 54.1425 63.9724 58.1139 61.0432 61.0431C58.114 63.9722 54.1426 65.62 50.0001 65.625Z" fill="#D1814F"/>
</svg>
